<svg width="500" height="373" viewBox="0 0 500 373" fill="none" xmlns="http://www.w3.org/2000/svg">
<path d="M500 327.4H0V327.65H500V327.4Z" fill="#EBEBEB"/>
<path d="M85.58 336.92H52.46V337.17H85.58V336.92Z" fill="#EBEBEB"/>
<path d="M213.67 334.21H171.14V334.46H213.67V334.21Z" fill="#EBEBEB"/>
<path d="M112.66 340.43H93.47V340.68H112.66V340.43Z" fill="#EBEBEB"/>
<path d="M449.9 344.53H434.67V344.78H449.9V344.53Z" fill="#EBEBEB"/>
<path d="M425.76 344.53H391.47V344.78H425.76V344.53Z" fill="#EBEBEB"/>
<path d="M331.83 337.33H308V337.58H331.83V337.33Z" fill="#EBEBEB"/>
<path d="M237 282.8H43.91C42.3973 282.797 40.9475 282.195 39.8789 281.124C38.8102 280.054 38.21 278.603 38.21 277.09V5.66C38.2232 4.15603 38.8292 2.71798 39.8964 1.65822C40.9637 0.598458 42.406 0.00257639 43.91 0H237C238.514 0 239.967 0.601588 241.038 1.67242C242.108 2.74325 242.71 4.19561 242.71 5.71V277.09C242.71 278.604 242.108 280.057 241.038 281.128C239.967 282.198 238.514 282.8 237 282.8ZM43.91 0.200001C42.4636 0.20265 41.0774 0.779065 40.0557 1.80273C39.0339 2.82639 38.46 4.21365 38.46 5.66V277.09C38.46 278.536 39.0339 279.924 40.0557 280.947C41.0774 281.971 42.4636 282.547 43.91 282.55H237C238.447 282.547 239.835 281.971 240.858 280.948C241.881 279.924 242.457 278.537 242.46 277.09V5.66C242.457 4.21273 241.881 2.82549 240.858 1.80212C239.835 0.77874 238.447 0.202644 237 0.200001H43.91Z" fill="#EBEBEB"/>
<path d="M453.31 282.8H260.21C258.696 282.797 257.246 282.195 256.175 281.125C255.105 280.054 254.503 278.604 254.5 277.09V5.66C254.516 4.15511 255.124 2.71708 256.193 1.65759C257.262 0.598109 258.705 0.00254829 260.21 0H453.31C454.812 0.0052045 456.252 0.602249 457.317 1.66173C458.382 2.72121 458.987 4.15775 459 5.66V277.09C459 278.601 458.401 280.05 457.335 281.121C456.268 282.191 454.821 282.795 453.31 282.8ZM260.21 0.200001C258.763 0.202644 257.375 0.77874 256.352 1.80212C255.329 2.82549 254.753 4.21273 254.75 5.66V277.09C254.753 278.537 255.329 279.924 256.352 280.948C257.375 281.971 258.763 282.547 260.21 282.55H453.31C454.757 282.547 456.145 281.971 457.168 280.948C458.191 279.924 458.767 278.537 458.77 277.09V5.66C458.767 4.21273 458.191 2.82549 457.168 1.80212C456.145 0.77874 454.757 0.202644 453.31 0.200001H260.21Z" fill="#EBEBEB"/>
<path d="M52.98 219.83H48.54L49.38 327.4H56.74L52.98 219.83Z" fill="#E0E0E0"/>
<path d="M51.11 217.92H127.97L136.52 327.4H59.66L51.11 217.92Z" fill="#F5F5F5"/>
<path d="M51.11 217.92H48.15L56.7 327.4H59.66L51.11 217.92Z" fill="#EBEBEB"/>
<path d="M173.49 112H324.7L341.53 327.4H190.32L173.49 112Z" fill="#F5F5F5"/>
<path d="M268.51 191.81C273.43 200.33 283 205 292.34 208C296.72 209.42 302.51 210.15 305.06 206.31C307.06 203.31 305.78 199.23 306.68 195.74C308.26 189.62 315.57 187.32 321.74 185.94C324.654 185.291 327.51 184.405 330.28 183.29L326.36 133.09C325.58 134.155 324.998 135.35 324.64 136.62C323.64 139.78 325.38 143.34 324.25 146.44C323.25 149.29 320.01 150.85 316.98 151.04C313.95 151.23 310.98 150.34 307.98 149.76C296.11 147.42 282.92 150.19 274.23 158.59C265.54 166.99 262.47 181.34 268.51 191.81Z" fill="#F5F5F5"/>
<path d="M173.49 112L182 221.49C183.862 223.597 185.838 225.6 187.92 227.49C193.39 232.49 199.64 236.86 206.72 239.12C209.117 239.884 211.593 240.378 214.1 240.59C209.51 246.87 208.3 256 213 262.15C215.54 265.47 219.37 267.51 222.65 270.15C225.93 272.79 228.89 276.51 228.45 280.67C228.14 283.67 226.09 286.23 224.02 288.46C216.02 297.11 206.16 304.46 200.76 314.96C199.14 318.1 197.94 321.67 198.65 325.12C198.811 325.911 199.066 326.68 199.41 327.41H272C275.288 319.096 275.532 309.887 272.69 301.41C267.86 287.41 255.37 276.78 241.34 271.93C247.34 266.36 255.55 263.93 263.48 261.81C271.41 259.69 279.64 257.73 286.21 252.81C297.11 244.67 299.77 221.86 281.1 222.69C275.68 222.93 270.89 226.06 265.21 226.2C259.53 226.34 253.96 226.2 248.43 226.56C250.737 224.011 252.695 221.166 254.25 218.1C256.76 213.1 258.32 207.46 257.18 202.02C254.26 188.08 236.31 182.94 229.44 170.46C221.14 155.39 231.8 136.16 227.11 119.6C226.337 116.889 225.127 114.323 223.53 112H173.49Z" fill="#F5F5F5"/>
<path d="M173.49 112L182 221.49C183.862 223.597 185.838 225.6 187.92 227.49C193.39 232.49 199.64 236.86 206.72 239.12C209.117 239.884 211.593 240.378 214.1 240.59C226.72 241.72 239.78 236.1 248.34 226.53C250.647 223.981 252.605 221.136 254.16 218.07C256.67 213.07 258.23 207.43 257.09 201.99C254.17 188.05 236.22 182.91 229.35 170.43C221.05 155.36 231.71 136.13 227.02 119.57C226.247 116.859 225.037 114.293 223.44 111.97L173.49 112Z" fill="#E6E6E6"/>
<path d="M198.69 325.11C198.851 325.901 199.106 326.67 199.45 327.4H272C275.288 319.086 275.532 309.877 272.69 301.4C267.86 287.4 255.37 276.77 241.34 271.92C247.34 266.35 255.55 263.92 263.48 261.8C271.41 259.68 279.64 257.72 286.21 252.8C297.11 244.66 299.77 221.85 281.1 222.68C275.68 222.92 270.89 226.05 265.21 226.19C259.53 226.33 253.96 226.19 248.43 226.55C244.567 226.733 240.727 227.241 236.95 228.07C228.86 229.88 220.66 233.07 215.23 239.3C214.87 239.72 214.52 240.16 214.23 240.61C209.64 246.89 208.43 256.02 213.13 262.17C215.67 265.49 219.5 267.53 222.78 270.17C226.06 272.81 229.02 276.53 228.58 280.69C228.27 283.69 226.22 286.25 224.15 288.48C216.15 297.13 206.29 304.48 200.89 314.98C199.18 318.09 198 321.66 198.69 325.11Z" fill="white"/>
<path d="M268.51 191.81C273.43 200.33 283 205 292.34 208C296.72 209.42 302.51 210.15 305.06 206.31C307.06 203.31 305.78 199.23 306.68 195.74C308.26 189.62 315.57 187.32 321.74 185.94C324.654 185.291 327.51 184.405 330.28 183.29L326.36 133.09C325.58 134.155 324.998 135.35 324.64 136.62C323.64 139.78 325.38 143.34 324.25 146.44C323.25 149.29 320.01 150.85 316.98 151.04C313.95 151.23 310.98 150.34 307.98 149.76C296.11 147.42 282.92 150.19 274.23 158.59C265.54 166.99 262.47 181.34 268.51 191.81Z" fill="#F0F0F0"/>
<path d="M171.87 115.67L168.15 114.83L173.49 327.4H186.95L171.87 115.67Z" fill="#E0E0E0"/>
<path d="M173.49 112H167.66L184.49 327.4H190.32L173.49 112Z" fill="#EBEBEB"/>
<path d="M315.89 163.11H431.22L444.06 327.4H328.73L315.89 163.11Z" fill="#F5F5F5"/>
<path d="M315.89 163.11H311.44L318.8 327.4H326.16L315.89 163.11Z" fill="#E0E0E0"/>
<path d="M315.89 163.11H311.44L324.28 327.4H328.73L315.89 163.11Z" fill="#EBEBEB"/>
<path d="M79.92 81.78H102.12L102.12 20.45H79.92V81.78Z" fill="#EBEBEB"/>
<path d="M102.12 81.78L404.37 81.78V20.45L102.12 20.45V81.78Z" fill="#F5F5F5"/>
<path d="M398.36 75.78V26.45L108.11 26.45V75.78L398.36 75.78Z" fill="#E6E6E6"/>
<path d="M186.05 75.77V26.44H160.94V75.77H186.05Z" fill="#E0E0E0"/>
<path d="M191.82 75.77V26.44H186.05V75.77H191.82Z" fill="#F5F5F5"/>
<path d="M349.42 75.78H380.54C381.888 75.78 382.98 74.6876 382.98 73.34V44.89C382.98 43.5424 381.888 42.45 380.54 42.45L349.42 42.45C348.072 42.45 346.98 43.5424 346.98 44.89V73.34C346.98 74.6876 348.072 75.78 349.42 75.78Z" fill="#FAFAFA"/>
<path d="M351.36 42.45H378.6C379.025 42.45 379.37 42.1053 379.37 41.68V39.11C379.37 38.6847 379.025 38.34 378.6 38.34H351.36C350.935 38.34 350.59 38.6847 350.59 39.11V41.68C350.59 42.1053 350.935 42.45 351.36 42.45Z" fill="white"/>
<path d="M382.98 68H355.42C355.067 68 354.729 67.8599 354.48 67.6105C354.23 67.361 354.09 67.0227 354.09 66.67V51.56C354.09 51.2073 354.23 50.869 354.48 50.6196C354.729 50.3701 355.067 50.23 355.42 50.23H382.98V68Z" fill="#F0F0F0"/>
<path d="M306.98 75.78H338.1C339.448 75.78 340.54 74.6876 340.54 73.34V44.89C340.54 43.5424 339.448 42.45 338.1 42.45L306.98 42.45C305.632 42.45 304.54 43.5424 304.54 44.89V73.34C304.54 74.6876 305.632 75.78 306.98 75.78Z" fill="#F5F5F5"/>
<path d="M308.92 42.45H336.16C336.585 42.45 336.93 42.1053 336.93 41.68V39.11C336.93 38.6847 336.585 38.34 336.16 38.34H308.92C308.495 38.34 308.15 38.6847 308.15 39.11V41.68C308.15 42.1053 308.495 42.45 308.92 42.45Z" fill="white"/>
<path d="M340.54 68H312.98C312.627 68 312.289 67.8599 312.04 67.6105C311.79 67.361 311.65 67.0227 311.65 66.67V51.56C311.649 51.3845 311.682 51.2105 311.748 51.048C311.815 50.8854 311.912 50.7376 312.036 50.6131C312.16 50.4885 312.307 50.3897 312.469 50.3222C312.631 50.2547 312.804 50.22 312.98 50.22H340.54V68Z" fill="#EBEBEB"/>
<path d="M286.73 75.78H308.28C309.213 75.78 309.97 75.0234 309.97 74.09V54.38C309.97 53.4466 309.213 52.69 308.28 52.69H286.73C285.797 52.69 285.04 53.4466 285.04 54.38V74.09C285.04 75.0234 285.797 75.78 286.73 75.78Z" fill="#FAFAFA"/>
<path d="M288.07 52.69H306.94C307.233 52.69 307.47 52.4527 307.47 52.16V50.37C307.47 50.0773 307.233 49.84 306.94 49.84H288.07C287.777 49.84 287.54 50.0773 287.54 50.37V52.16C287.54 52.4527 287.777 52.69 288.07 52.69Z" fill="white"/>
<path d="M309.97 70.39H296.82C296.576 70.39 296.342 70.2931 296.169 70.1205C295.997 69.948 295.9 69.714 295.9 69.47V59C295.9 58.756 295.997 58.522 296.169 58.3495C296.342 58.1769 296.576 58.08 296.82 58.08H309.97V70.39Z" fill="#F0F0F0"/>
<path d="M122.98 75.78H144.53C145.463 75.78 146.22 75.0234 146.22 74.09V54.38C146.22 53.4466 145.463 52.69 144.53 52.69H122.98C122.047 52.69 121.29 53.4466 121.29 54.38V74.09C121.29 75.0234 122.047 75.78 122.98 75.78Z" fill="#F5F5F5"/>
<path d="M124.32 52.69H143.19C143.483 52.69 143.72 52.4527 143.72 52.16V50.37C143.72 50.0773 143.483 49.84 143.19 49.84H124.32C124.027 49.84 123.79 50.0773 123.79 50.37V52.16C123.79 52.4527 124.027 52.69 124.32 52.69Z" fill="white"/>
<path d="M126.65 70.39H142.42C143.591 70.39 144.54 69.4408 144.54 68.27V60.2C144.54 59.0292 143.591 58.08 142.42 58.08H126.65C125.479 58.08 124.53 59.0292 124.53 60.2V68.27C124.53 69.4408 125.479 70.39 126.65 70.39Z" fill="#EBEBEB"/>
<path d="M238.42 75.78H274.31V37.7L238.42 37.7V75.78Z" fill="#F0F0F0"/>
<path d="M238.42 42.73L274.31 42.73V37.7L238.42 37.7V42.73Z" fill="white"/>
<path opacity="0.3" d="M242.33 75.78H248.73V37.7H242.33V75.78Z" fill="#E0E0E0"/>
<path opacity="0.3" d="M251.57 75.78H254.77V37.7H251.57V75.78Z" fill="#E0E0E0"/>
<path d="M202.7 75.78H234.87V41.65L202.7 41.65V75.78Z" fill="#E0E0E0"/>
<path d="M202.7 46.16L234.87 46.16V41.65H202.7V46.16Z" fill="#F0F0F0"/>
<path opacity="0.3" d="M206.21 75.78H211.94V41.65H206.21V75.78Z" fill="#F5F5F5"/>
<path opacity="0.3" d="M214.48 75.78H217.35V41.65H214.48V75.78Z" fill="#F5F5F5"/>
<path d="M250 372.56C357.082 372.56 443.89 367.492 443.89 361.24C443.89 354.988 357.082 349.92 250 349.92C142.918 349.92 56.11 354.988 56.11 361.24C56.11 367.492 142.918 372.56 250 372.56Z" fill="#F5F5F5"/>
<path d="M154.36 358.22H160.13L171.84 35.33H166.06L154.36 358.22Z" fill="#407BFF"/>
<path d="M251.54 358.22H245.76L192.06 35.33H197.84L251.54 358.22Z" fill="#407BFF"/>
<path d="M124.62 358.22H130.4L186.04 23.83H180.26L124.62 358.22Z" fill="#407BFF"/>
<path d="M169.17 43.97H195.19V39.84H169.17V43.97Z" fill="#407BFF"/>
<path d="M163.09 241.5H228.2V237H163.09V241.5Z" fill="#407BFF"/>
<path d="M128.432 79.2862L127.435 79.3605L127.778 83.9577L128.775 83.8834L128.432 79.2862Z" fill="#407BFF"/>
<path d="M126.811 57.5369L125.813 57.611L127.035 74.0457L128.032 73.9715L126.811 57.5369Z" fill="#407BFF"/>
<path d="M140.72 211.88L142.7 211.9L130.2 42.55L128.22 42.53L140.72 211.88Z" fill="#407BFF"/>
<path d="M142.7 211.9L260.19 213.03L247.69 43.68L130.2 42.55L142.7 211.9Z" fill="#407BFF"/>
<path opacity="0.8" d="M142.7 211.9L260.19 213.03L247.69 43.68L130.2 42.55L142.7 211.9Z" fill="white"/>
<path d="M146.05 210.93L258.11 210.99L245.99 44.65L132.32 44.58L146.05 210.93Z" fill="white"/>
<path d="M192.13 214.2H222.13C222.7 214.198 223.249 213.986 223.672 213.604C224.094 213.222 224.361 212.697 224.42 212.13L225.06 206.13H190.43L189.84 211.6C189.799 211.925 189.827 212.255 189.924 212.568C190.02 212.882 190.182 213.171 190.398 213.417C190.615 213.663 190.881 213.86 191.18 213.995C191.478 214.13 191.802 214.2 192.13 214.2Z" fill="#407BFF"/>
<path d="M315.63 117.94C314.507 117.509 313.426 116.977 312.4 116.35C311.26 115.66 310.08 114.91 308.92 114.09C306.59 112.45 304.27 110.64 301.97 108.78C297.4 105.03 295.18 103.44 290.75 99.43L286.19 103.53C289.168 107.691 292.446 111.628 296 115.31C298.17 117.57 300.44 119.76 302.9 121.87C304.13 122.87 305.41 123.97 306.8 124.95C308.29 126.033 309.877 126.977 311.54 127.77C312.611 128.265 313.735 128.634 314.89 128.87C316.72 129.251 318.623 129.059 320.34 128.32C321.423 127.823 322.386 127.096 323.16 126.19C323.505 125.785 323.813 125.35 324.08 124.89C324.3 124.49 324.52 124.05 324.68 123.67L324.89 123.1L325.04 122.63L325.22 122.03L315.63 117.94Z" fill="#FFB573"/>
<path d="M298.52 180.06C300.43 168.98 303.29 163.33 304.62 161.17C305.68 158.11 307.22 155.63 307.95 151.87C307.21 138.08 307.71 119 309.23 115.87C310.1 114.49 316.23 111.13 316.72 111.01C317.64 102.19 323.88 94.46 323.88 94.46C325.475 94.3514 327.075 94.3514 328.67 94.46C322.49 102.68 321.67 107.99 321.18 110.17C327.732 109.252 334.372 109.148 340.95 109.86C342.73 101.07 350.23 95.98 350.23 95.98C351.544 96.1381 352.837 96.433 354.09 96.86C347.68 103.78 346.49 108.07 345.7 110.46C348.39 110.86 351.45 116.02 351.45 116.02C347.07 133.86 343.85 149.4 343.77 153.23C343.69 157.06 345.23 156.23 345.77 159.69C351.01 160.35 351.48 161.35 351.48 161.35C351.604 162.673 351.412 164.006 350.92 165.24C349.151 164.605 347.311 164.191 345.44 164.01C340.51 190.25 333.61 215.43 333.1 240.78L278.69 239.27C278.69 239.27 291.12 192.09 298.52 180.06Z" fill="white"/>
<path d="M294.14 101.28L292.62 95.06L284 99.67C284 99.67 286.67 106.78 290.67 106.13L293.11 104.26C293.552 103.916 293.884 103.452 294.067 102.923C294.25 102.394 294.275 101.823 294.14 101.28Z" fill="#FFB573"/>
<path d="M287.55 88.53L282.45 96.23L283.98 99.67L292.62 95.06L287.55 88.53Z" fill="#FFB573"/>
<path d="M350.61 75.16C348.23 81.05 344.84 91.89 348.15 96.16C344.28 99.16 339.32 102.59 332.26 102.36C325.2 102.13 327.42 97.36 329.8 94.9C336.71 93.77 337.55 88.82 337.35 84.11L350.61 75.16Z" fill="#FFB573"/>
<path d="M331.3 61.41C331.357 61.4415 331.42 61.4581 331.485 61.4581C331.55 61.4581 331.613 61.4415 331.67 61.41C332.09 61.1653 332.564 61.0265 333.05 61.0056C333.536 60.9847 334.02 61.0823 334.46 61.29C334.505 61.3145 334.555 61.3298 334.606 61.335C334.657 61.3402 334.709 61.3352 334.758 61.3203C334.808 61.3055 334.853 61.281 334.893 61.2483C334.933 61.2157 334.966 61.1754 334.99 61.13C335.037 61.0408 335.048 60.9367 335.02 60.8397C334.992 60.7428 334.927 60.6604 334.84 60.61C334.285 60.346 333.675 60.2192 333.06 60.24C332.446 60.2609 331.846 60.429 331.31 60.73C331.265 60.7532 331.225 60.7851 331.192 60.824C331.16 60.8628 331.135 60.9078 331.12 60.9563C331.105 61.0047 331.1 61.0557 331.105 61.1061C331.111 61.1566 331.126 61.2055 331.15 61.25C331.18 61.3189 331.233 61.3753 331.3 61.41Z" fill="#263238"/>
<path d="M331.72 65C330.54 66.8094 329.116 68.4481 327.49 69.87C327.87 70.2812 328.335 70.6038 328.854 70.8146C329.372 71.0255 329.931 71.1195 330.49 71.09L331.72 65Z" fill="#ED893E"/>
<path d="M331.72 65.21C331.59 65.85 331.13 66.31 330.72 66.21C330.31 66.11 330.07 65.52 330.2 64.88C330.33 64.24 330.79 63.78 331.2 63.88C331.61 63.98 331.86 64.56 331.72 65.21Z" fill="#263238"/>
<path d="M353.72 67.69C351.57 75.51 350.72 80.19 345.87 83.42C338.57 88.28 329.56 82.61 329.32 74.31C329.11 66.83 332.65 55.31 341.06 53.78C342.913 53.4321 344.824 53.564 346.611 54.163C348.398 54.7621 350.002 55.8084 351.271 57.2025C352.54 58.5966 353.431 60.2921 353.86 62.1277C354.288 63.9634 354.24 65.8782 353.72 67.69Z" fill="#FFB573"/>
<path d="M336.78 69C336.046 70.5546 335.689 72.2602 335.738 73.9785C335.787 75.6968 336.24 77.3794 337.06 78.89C338.67 82.17 339.92 84.17 346.12 85.21C352.32 86.25 350.23 77.72 353.12 74.33C356.01 70.94 366.28 60.33 355.89 57.67C358.12 49.83 352.49 47.22 345.31 49.39C338.13 51.56 328.41 54.24 329.73 49.89C329.73 49.89 321.17 60.67 339.73 59.39C333.62 64.61 336.78 69 336.78 69Z" fill="#263238"/>
<path d="M340.28 50.42C343.591 48.8785 347.259 48.27 350.89 48.66C356.69 49.14 361.25 52.16 362.89 60.24C364.53 68.32 363.39 75.33 359.47 74.63C358.18 73 352.87 77.33 352.87 77.33C351.76 79.54 344.18 73.92 340.93 67.5C337.68 61.08 335.57 51.17 340.28 50.42Z" fill="#407BFF"/>
<path opacity="0.3" d="M340.28 50.42C343.591 48.8785 347.259 48.27 350.89 48.66C356.69 49.14 361.25 52.16 362.89 60.24C364.53 68.32 363.39 75.33 359.47 74.63C358.18 73 352.87 77.33 352.87 77.33C351.76 79.54 344.18 73.92 340.93 67.5C337.68 61.08 335.57 51.17 340.28 50.42Z" fill="white"/>
<path d="M337 50.89C334.33 51.33 335.28 59.78 338.28 66.72C341.28 73.66 346.36 79.67 351.55 80.5C351.984 80.0934 352.332 79.6027 352.571 79.0578C352.81 78.5128 352.935 77.925 352.94 77.33C351.5 76.33 346.43 73.72 341.77 64.39C337.11 55.06 340.33 50.39 340.33 50.39C340.18 49.79 337 50.89 337 50.89Z" fill="#407BFF"/>
<path d="M339.34 69C338.835 70.6414 337.774 72.0557 336.34 73C334.46 74.21 333.15 72.74 333.34 70.66C333.53 68.8 334.74 65.92 336.77 65.55C338.8 65.18 339.94 67 339.34 69Z" fill="#FFB573"/>
<path d="M320.11 352.9H311.94L313.57 333.98H321.74L320.11 352.9Z" fill="#FFB573"/>
<path d="M310.85 352H320.8C320.963 351.999 321.122 352.054 321.25 352.156C321.377 352.258 321.465 352.4 321.5 352.56L323.11 359.82C323.15 359.996 323.148 360.18 323.107 360.355C323.065 360.531 322.983 360.696 322.869 360.835C322.754 360.975 322.609 361.087 322.445 361.162C322.28 361.237 322.101 361.274 321.92 361.27C318.71 361.22 316.38 361.03 312.34 361.03C309.86 361.03 304.4 361.29 300.97 361.29C297.54 361.29 297.1 357.9 298.5 357.59C304.79 356.21 307.5 354.32 309.5 352.5C309.872 352.172 310.354 351.993 310.85 352Z" fill="#263238"/>
<path opacity="0.2" d="M321.74 333.99H313.57L312.73 343.74H320.9L321.74 333.99Z" fill="black"/>
<path d="M287.88 84.12C286.88 84.43 287.06 84.96 286.94 85.43L286.69 86.87L286.19 89.75L285.27 95.53C284.983 97.45 284.707 99.38 284.44 101.32C284.22 103.26 283.94 105.19 283.76 107.14C283.752 107.266 283.791 107.39 283.869 107.489C283.947 107.587 284.059 107.654 284.184 107.675C284.308 107.696 284.435 107.67 284.542 107.603C284.648 107.536 284.726 107.431 284.76 107.31C285.27 105.42 285.68 103.52 286.14 101.62C286.6 99.72 286.98 97.81 287.37 95.9L288.51 90.17L289.04 87.29L289.31 85.86C289.31 85.37 289.71 84.94 288.88 84.29C288.739 84.1835 288.575 84.1124 288.401 84.0829C288.227 84.0533 288.048 84.066 287.88 84.12Z" fill="#263238"/>
<path d="M288.17 84.63C289.22 84.83 291.17 84.18 290.56 81.52C289.95 78.86 288.33 78.23 290.42 76.33C286.45 78.62 284.66 83.93 288.17 84.63Z" fill="#407BFF"/>
<path d="M360.53 103.27C349.12 133.03 351.34 163.27 349.98 169.67L306.5 168.32C305.35 130.13 311.68 105.86 315.6 98.6C315.977 97.8871 316.513 97.2708 317.167 96.799C317.821 96.3273 318.575 96.0128 319.37 95.88C320.52 95.7 322 95.5 323.66 95.32C324.87 95.19 326.17 95.07 327.53 94.99C328.27 94.94 329.03 94.91 329.8 94.89C335.939 94.9543 342.07 95.375 348.16 96.15C349.3 96.29 350.46 96.46 351.58 96.64C352.7 96.82 353.63 97 354.58 97.19C355.79 97.42 356.92 97.67 357.92 97.9C358.476 98.0325 358.995 98.2867 359.44 98.6442C359.886 99.0017 360.246 99.4536 360.496 99.9673C360.746 100.481 360.878 101.044 360.884 101.615C360.89 102.186 360.769 102.751 360.53 103.27Z" fill="#407BFF"/>
<path d="M310.49 114.72L309.12 119.72C342.17 130.4 328.67 94.45 328.67 94.45C327.081 94.2303 325.469 94.2303 323.88 94.45C330.28 112.33 324.22 121.07 310.49 114.72Z" fill="white"/>
<path opacity="0.2" d="M328.39 106.92C336.19 106.64 339.95 120.64 339.95 120.64L338.95 121.39L345.76 133.17L337.76 137.83L330.29 126.36L328.39 127.77C325.159 125.282 322.485 122.144 320.54 118.56C316.22 110.48 318.93 107.24 328.39 106.92Z" fill="black"/>
<path d="M348.76 134.45C348.68 133.77 348.533 133.1 348.32 132.45C348.225 132.148 348.115 131.851 347.99 131.56L347.69 130.89C347.12 129.62 346.56 128.33 345.93 127.1C344.683 124.615 343.304 122.198 341.8 119.86C340.304 117.525 338.689 115.269 336.96 113.1C336.08 112.02 335.19 110.96 334.25 109.92C333.79 109.39 333.3 108.92 332.82 108.36L332.05 107.59L331.2 106.76L322.65 115.76L323.75 116.95C324.15 117.38 324.55 117.81 324.95 118.26C325.74 119.15 326.52 120.08 327.28 121.01C328.83 122.87 330.28 124.79 331.74 126.75C333.2 128.71 334.54 130.75 335.79 132.75C336.41 133.7 336.96 134.68 337.53 135.66C336.798 136.195 336.014 136.654 335.19 137.03C333.066 137.985 330.869 138.767 328.62 139.37C323.93 140.68 318.87 141.68 313.93 142.58L314.18 148.71C319.593 149.067 325.027 148.91 330.41 148.24C333.271 147.895 336.094 147.283 338.84 146.41C340.435 145.9 341.966 145.205 343.4 144.34C344.292 143.798 345.117 143.153 345.86 142.42C346.825 141.477 347.593 140.352 348.12 139.11C348.724 137.636 348.944 136.032 348.76 134.45Z" fill="#FFB573"/>
<path d="M316.83 142L310.45 142.66L313.85 151.83C313.85 151.83 321.26 150.16 321.16 146.11L319.64 143.44C319.361 142.954 318.947 142.56 318.448 142.304C317.949 142.048 317.387 141.943 316.83 142Z" fill="#FFB573"/>
<path d="M304.7 145.67L305.99 154.17L313.85 151.88L310.45 142.7L304.7 145.67Z" fill="#FFB573"/>
<path d="M324.15 95.26C331.92 96.08 341.38 115.7 341.38 115.7L328.38 124.4C328.38 124.4 322.98 122.49 317.16 114.25C310.19 104.33 314 94.21 324.15 95.26Z" fill="#407BFF"/>
<path d="M321.92 168.8C321.92 168.8 313 233 310.68 256.87C308.13 283.05 309.23 340.64 309.23 340.64H324.23C324.23 340.64 328.43 283.05 333.14 257.52C338.5 228.45 354.14 184.89 350.02 169.68L321.92 168.8Z" fill="#263238"/>
<path opacity="0.2" d="M324.61 187.92C324.07 188.1 321.69 188.38 319.19 188.79C317.38 202.25 314.99 220.26 313.13 235.46C320.05 223.35 326.49 200 324.61 187.92Z" fill="black"/>
<path d="M307.96 341.92H325.58L326.3 336.66L307.9 335.81L307.96 341.92Z" fill="#407BFF"/>
<path opacity="0.2" d="M307.96 341.92H325.58L326.3 336.66L307.9 335.81L307.96 341.92Z" fill="black"/>
<path d="M308.14 353.38C308.862 353.361 309.579 353.264 310.28 353.09C310.318 353.082 310.354 353.062 310.38 353.034C310.407 353.005 310.425 352.969 310.43 352.93C310.436 352.892 310.431 352.852 310.415 352.817C310.399 352.781 310.373 352.751 310.34 352.73C310.04 352.55 307.41 350.93 306.5 351.39C306.401 351.444 306.318 351.523 306.26 351.62C306.202 351.717 306.171 351.827 306.17 351.94C306.153 352.126 306.18 352.314 306.249 352.488C306.319 352.662 306.429 352.817 306.57 352.94C307.028 353.26 307.582 353.415 308.14 353.38ZM309.72 352.81C308.33 353.09 307.27 353.04 306.82 352.67C306.724 352.583 306.65 352.474 306.605 352.352C306.559 352.23 306.544 352.099 306.56 351.97C306.56 351.81 306.63 351.76 306.68 351.74C307.15 351.5 308.65 352.2 309.72 352.81Z" fill="#407BFF"/>
<path d="M310.24 353.09C310.267 353.09 310.293 353.085 310.318 353.074C310.342 353.063 310.364 353.047 310.382 353.027C310.4 353.008 310.413 352.984 310.422 352.959C310.43 352.933 310.433 352.907 310.43 352.88C310.43 352.78 310.23 350.43 309.28 349.65C309.165 349.555 309.033 349.484 308.89 349.441C308.748 349.398 308.598 349.384 308.45 349.4C308.305 349.402 308.165 349.454 308.054 349.547C307.943 349.639 307.868 349.768 307.84 349.91C307.67 350.82 309.3 352.61 310.14 353.07L310.24 353.09ZM308.59 349.78C308.752 349.784 308.907 349.844 309.03 349.95C309.611 350.684 309.96 351.576 310.03 352.51C309.19 351.87 308.15 350.51 308.25 349.98C308.25 349.93 308.25 349.82 308.53 349.79H308.62L308.59 349.78Z" fill="#407BFF"/>
<path d="M313.93 344.6L306.02 347.36L301.75 329.32L309.67 326.56L313.93 344.6Z" fill="#FFB573"/>
<path d="M305.08 347.87C305.03 347.79 304.08 345.8 302.79 345.36C302.609 345.295 302.416 345.267 302.224 345.277C302.032 345.288 301.843 345.336 301.67 345.42C301.27 345.62 301.17 345.86 301.17 346.06C301.165 346.1 301.165 346.14 301.17 346.18C301.36 347.1 303.8 348.08 304.88 348.18C304.922 348.196 304.968 348.196 305.01 348.18C305.038 348.167 305.063 348.148 305.082 348.124C305.101 348.1 305.115 348.072 305.122 348.042C305.128 348.012 305.128 347.981 305.121 347.951C305.114 347.921 305.1 347.894 305.08 347.87ZM301.56 346.11C301.554 346.065 301.561 346.019 301.58 345.978C301.6 345.937 301.631 345.903 301.67 345.88C301.722 345.837 301.779 345.8 301.84 345.77C301.98 345.701 302.134 345.663 302.29 345.66C302.419 345.664 302.548 345.687 302.67 345.73C303.488 346.187 304.145 346.885 304.55 347.73C303.4 347.5 301.67 346.66 301.56 346.11Z" fill="#407BFF"/>
<path d="M305 348.11C305.026 348.086 305.045 348.056 305.055 348.023C305.066 347.99 305.067 347.954 305.06 347.92C305.052 347.882 305.032 347.846 305.004 347.82C304.975 347.793 304.939 347.775 304.9 347.77C304.48 347.71 300.83 347.29 300.09 348.15C300.018 348.23 299.969 348.328 299.948 348.434C299.927 348.539 299.934 348.648 299.97 348.75C300.012 348.92 300.093 349.078 300.208 349.21C300.323 349.342 300.467 349.445 300.63 349.51C301.75 349.94 303.83 348.82 304.97 348.12L305 348.11ZM300.44 348.35C300.94 347.94 302.84 347.96 304.27 348.09C302.69 348.99 301.4 349.39 300.77 349.14C300.662 349.099 300.566 349.032 300.491 348.945C300.416 348.857 300.364 348.753 300.34 348.64C300.318 348.606 300.306 348.566 300.306 348.525C300.306 348.484 300.318 348.444 300.34 348.41C300.379 348.381 300.423 348.361 300.47 348.35H300.44Z" fill="#407BFF"/>
<path d="M305.39 346.77L313.75 343.68C313.902 343.622 314.07 343.618 314.225 343.669C314.379 343.72 314.512 343.823 314.6 343.96L318.6 350.21C318.702 350.361 318.768 350.534 318.792 350.715C318.817 350.896 318.799 351.08 318.741 351.253C318.683 351.426 318.586 351.583 318.458 351.713C318.329 351.842 318.173 351.941 318 352C315 353.06 310.54 354.5 306.75 355.9C302.31 357.54 302.34 357.74 297.13 359.66C293.99 360.83 291.94 357.97 293.13 357.2C298.64 353.67 299.72 353.2 303.71 348.07C304.134 347.485 304.717 347.033 305.39 346.77Z" fill="#263238"/>
<path opacity="0.2" d="M301.76 329.33L303.95 338.63L311.87 335.86L309.67 326.56L301.76 329.33Z" fill="black"/>
<path d="M303.41 251.18C310.34 233.79 335.08 169.18 335.08 169.18L306.5 168.29C306.5 168.29 287.5 221.65 280.03 246.23C272.23 271.79 300.27 336.55 300.27 336.55L314.65 332.06C314.65 332.06 296.48 268.57 303.41 251.18Z" fill="#263238"/>
<path d="M299.58 338.09L315.82 332.37L314.65 327.38L297.77 332.45L299.58 338.09Z" fill="#407BFF"/>
<path opacity="0.2" d="M299.58 338.09L315.82 332.37L314.65 327.38L297.77 332.45L299.58 338.09Z" fill="black"/>
<path d="M306 158.91L305.54 163.38C325.75 163.92 335.13 166.29 335.13 166.29C335.39 164.944 335.54 163.58 335.58 162.21C328.2 159.38 314.2 158.75 306 158.91Z" fill="white"/>
<path d="M351.45 161.33L350.89 165.22C345.572 165.079 340.252 165.438 335 166.29C334.843 164.907 335.025 163.507 335.53 162.21C343.78 160.14 349 160.75 351.45 161.33Z" fill="white"/>
<path d="M354.09 96.84L350.23 95.96C350.89 111.25 355.48 119.71 355.48 119.71C356.473 117.85 357.085 115.81 357.28 113.71C354.881 108.423 353.787 102.638 354.09 96.84Z" fill="white"/>
<path d="M332.89 166.29C332.55 167.45 335.15 166.91 335.53 166.53C335.91 166.15 340.14 161.61 337.87 161.36C335.6 161.11 335.42 161.61 335.42 161.61C334.594 161.09 333.645 160.8 332.67 160.77C331.09 160.75 333.6 163.92 332.89 166.29Z" fill="white"/>
<path d="M332.66 161.69C330.93 163.04 326.03 169.5 325.74 176.21C326.998 175.606 328.294 175.085 329.62 174.65C329.62 174.65 330.45 169.1 333.45 165.73L332.66 161.69Z" fill="white"/>
<path d="M337.13 162.18C338.69 164.33 343.05 173.25 343.2 180.64C342.083 179.51 340.908 178.438 339.68 177.43C339.68 177.43 338.37 170.28 335.68 165.43L337.13 162.18Z" fill="white"/>
<path d="M322.66 192.29H319.66L291.22 361.24H294.22L322.66 192.29Z" fill="#407BFF"/>
<path d="M356.89 192.29H353.89L325.44 361.24H328.44L356.89 192.29Z" fill="#407BFF"/>
<path opacity="0.2" d="M356.89 192.29H353.89L325.44 361.24H328.44L356.89 192.29Z" fill="black"/>
<path d="M360.77 192.29H363.77L392.22 361.24H389.22L360.77 192.29Z" fill="#407BFF"/>
<path d="M326.55 192.29H329.55L358 361.24H355L326.55 192.29Z" fill="#407BFF"/>
<path d="M322.62 184.89H360.82C361.616 184.89 362.379 185.206 362.941 185.769C363.504 186.331 363.82 187.094 363.82 187.89V192.33H319.66V187.89C319.66 187.101 319.971 186.344 320.525 185.783C321.078 185.221 321.831 184.901 322.62 184.89Z" fill="#407BFF"/>
</svg>
